<?xml version="1.0" encoding="UTF-8"?>
<svg id="_图层_1" data-name="图层_1" xmlns="http://www.w3.org/2000/svg" version="1.1" viewBox="0 0 1589.4 609.2">
  <!-- Generator: Adobe Illustrator 29.7.1, SVG Export Plug-In . SVG Version: 2.1.1 Build 8)  -->
  <g id="_图层_5">
    <path fill="#fd9c86" d="M1369.8,315.8s20,.5,20-8.2,2-25.9,4.4-25.9,9.6-31.5,6-30.9-32.4,20.1-32.4,20.1l2,44.9h0Z"/>
  </g>
  <g id="_图层_4">
    <path fill="#fd9c86" d="M1442.2,206.4s-2.5-3.6-6.1,0-9.2,6.4-9.8,8.1-.6,5.3-2.2,4.7-22.6,1.2-24.2,0,20.9,5.8,22.8,5.2,1.9,3.7-2.5,4.5-23.7,7.2-27.6,5.5-26.2-9.2-32-18.1-10.6-10.6-22.6-14.8-19.7-39-21-54.1,2.2-35.1-4.3-39.4-10-14.3-26.4-6.5c-16.4,7.8-15.2,7.4-25.5,10s-18.2,7.8-18.2,7.8c0,0-4.3,5.6-2.6,12.5s-10.4,2.2-10.4,2.2c0,0,0,15.1,2.6,21.2s7.4,10.8,10.4,11.4,5.2,2.1-9.1,1.6-10.8,20.7-10.8,20.7c0,0,2.6,19.3,10,20.7s-6.5,7.9-5.2,10.5,5.6,10,10,14.5,8.7,29.6,22.5,21.8,29.9-17.8,27.3-10-6.9,27.3-11.9,27.7-13.7,2.2-13.7,2.2c0,0-5.2,6.1-6.5,8.2s-17.8,8.9-12.1,19.8-6.5,8.8,12.1,14.4-13,3-13,3c0,0-10.8,9-7.4,20.5s-7.8,7.2,11.7,20.6-16.6,9.5,4.2,26,14.8,26.4,29.1,14.3,31.2-28.1,35.5-32,35.1-20.9,41.1-14.6-8.2,7.2-8.2,7.2c0,0-6.6,6.5-4.6,16.5s7.2,32,16.7,39.4,31.6,41.6,37.7,36.8,2.6-22.1,7.4-29.9,21.2-43.3,24.7-43.7-5.2,9.5-3.9,11.2,11.7-13.4,11.7-13.4l4.4,4.3v-4.8l13.3-21.2s-2.6-6.1-5.6-4.3-12.6,13.4-19.5,13.9-39,10-51.9,2.6-15.6-10.5-14.3-14.6-.9-68.5,42.4-104.9c0,0,23.8-10.3,23.3-12.3s-1.3-6.9-1.3-6.9l11.6-15.6s8.2-10.7,2-10.7h0Z"/>
  </g>
  <g id="_图层_2">
    <path fill="#ff8366" d="M1202.8,345.9s-6.7,5.7-7.3,7.1-7.1,14.8-24.7,15-31-4.5-33.8-4.2-17.6,7.9-25.7,3.2-25.5-12.3-38.7-31-22.3-25.5-27.9-23.1-14,8.7-16.4,8.9-6.5,10.9-8.5,15.6-3.4,7.3-4.5,10.1-6.9,8.7-7.3,9.9.4,8.5,0,9.3-8.3,14-6.1,19.4,6.5,5.3,6.5,6.3,1.6,5.7,3.6,5.7,13.3-1,13.3-1c0,0,4.1,0,2.6,2.2s-15.8,9.7-14.4,13.6.8,6.7,2.4,8.1,3.4,1,4.2,2.8,36.4,65.1,45.5,67.8,7.5,6.1,17.6,0,9.7-7.7,8.9-3.8-9.3,14.8-1.6,20.2,53.8,46.9,79.5,36.5,42.6-28.8,43.3-27.2-2.7,19.2,1.5,18,37.6-10,35.3-24.5-9.6-30.7-10-35.3-15.7-59.8-19.6-67.9-14.6-20.7-16.1-31.4-2.5-19.4-1.5-21.7-.6-8.6-.6-8.6h0Z"/>
    <path fill="#ff8366" d="M1205.1,311.3s5.1,1.4,6.5,5.8,2.4,17.3,2.4,17.9-.3,3.8,2.1,4-4.7,1-4.8,0-1.8,12.6-.5,12.9,0,3.8,0,4.8-2.5-9.2-3.4-10.8-3.8,2.5-3.8,5-2.7-3.4-2.7-3.4c0,0,3.4,0,3.5-2.7s1.7-6.7,0-6.8-20.2,11.8-21.8,10.1,3.3-2.5,6.1-5.7,10.9-6.8,10.7-9.8,4.9-3,5-5.8-1.8-16.5.6-15.5h0Z"/>
    <path fill="#ffc1b9" d="M1467,168.4s-4.6,7.4-4.6,12.7,1.9,9.9,0,11.4-16.1,17-14.8,17.3,17.6-13.6,19.5-13.3-7.9,20.1-7.9,20.1c0,0-12.5,17.9-30.5,16.1s-26,11.4-26,11.4c0,0-6.2,11.8,0,14.2s12.1,11.1,12.1,11.1c0,0,26.9,14.5,30.3,13.6s4.9,0,4.9,0c0,0,.9,4,4,4s19.2,4.3,26.9,1.5,6.8,1.6,12.7.9,14.2-8.4,12.7-12.1-23.2-30.6-28.8-34.3-4.9-16.7-5.6-21.9-1.9-17,0-16.7,3.7,11.1,5.3,9.9.3-17.6-.9-18.2,8,1.9,6.8-.3-3.7-.3-4.6-4.6-8.3-21.3-8.3-21.3l-3.1-1.6h0Z"/>
    <path fill="#ffc1b9" d="M1411.9,233s-23.4,17-24.5,25.5c-1,8.5-6.1,34.6-6.1,35.7s1.7,31.9,1.7,31.9c0,0,3.4,18-21.1,16.3s-13.6-1.4-26.5-2.7-5.1-16.6-7.5-16.3-11.2,6.5-17.3,1.7-1-1.8-10.2-9.2-1.7-21.3,1.7-24.4,4.1-2.9-6.1-1.8-9.9.8-11.9-3.3-11.6,3.1-8.2-18.4,8.2-28.2,7.1-29.9,2-2.7,2-5.1.3-10.2.7-12.9,9.2-10.9,13.6-13.2,4.1-7.1,8.8-7.5,12.2.3,14.6,4.4,14.6,27.5,27.5,30.2,8.8,7.1,22.1,5.8,10.2,2.7,20.7-2,18.7-4.8,18.7-4.8h0Z"/>
  </g>
  <path fill="#fd9c86" d="M1295.8,525.3s3.9,57.2-14.3,65,14.3,26.2,22.1,18.9,9.1-16.3,9.1-16.3c0,0,3.9,29.9,7.8,26,0,0,30.4-4.8,18.5-46.6s-36.6-70.3-36.6-75.5-6.5-33.8-2.6-33.8-16.9-6.5-15.6,0,11.9,34.8,11.7,62.4Z"/>
  <path fill="#fd9c86" d="M651,480.7s-6.6,50.6,24.2,39.6-24.2-39.6-24.2-39.6Z"/>
  <path fill="#fd9c86" d="M650.4,349.2s12.1,58.2-9.6,48.2-3.6,3.5,2.1,3.7,15.7.7,17.8,0,10-1.4,10.9-1.4,12.5,5.3,14.6,5.2,4.6-5.7,3.7-7.3-4.2-5.3-4.2-5.3c0,0,3.8,2.8,4.4,0s3.9-24.4,0-27.2-5.6-2.6-5.6-2.6c0,0,4.3-1.9,3.5-4.7s-9.2-16.6-19.4-16.8-19.4,2.5-18.3,8.3Z"/>
  <path fill="#fd9c86" d="M618.7,389.1s-8.7-9.8-3.8-9.8,10.3-7.9,3.8-9-21.5-10.1-22.9-4.1,7.1,21.5,9,21.5,9,9.8,13.9,1.4Z"/>
  <path fill="#fd9c86" d="M619.3,398.9s-5.7,7.1,0,7.1,0-7.1,0-7.1Z"/>
  <path fill="#ff8366" d="M-9.9-26.9s91.5,306.7,164.3,308.6c0,0,23.3,3.9,7.8-17.5S6.7,6.9,0-34.8s-9.9,7.9-9.9,7.9Z"/>
  <path fill="#fd9c86" d="M130.1,325.8s-82.8,150.1-51.3,165.2,48.2,68.2,51.3,42.4-16.7-203.1,0-207.7Z"/>
  <path fill="#fd9c86" d="M108.9,282S45.7,207.5,0,231.8s108.9,50.2,108.9,50.2Z"/>
</svg>