<?xml version="1.0" encoding="UTF-8"?>
<svg xmlns="http://www.w3.org/2000/svg" viewBox="0 0 1589.36 609.15">
  <defs>
    <style>
      .cls-1 {
        fill: #fedc9d;
      }

      .cls-2 {
        fill: #fdce8f;
      }

      .cls-3 {
        fill: #fef9ee;
      }
    </style>
  </defs>
  <g id="_图层_5" data-name="图层 5">
    <path class="cls-1" d="M1369.83,315.84s19.99.55,19.99-8.25,1.96-25.93,4.4-25.93,9.58-31.46,6.01-30.9-32.43,20.15-32.43,20.15l2.02,44.94Z"/>
  </g>
  <g id="_图层_4" data-name="图层 4">
    <path class="cls-1" d="M1442.25,206.39s-2.51-3.62-6.13,0-9.19,6.41-9.75,8.08-.56,5.29-2.23,4.74-22.55,1.23-24.23.06,20.89,5.79,22.84,5.24,1.95,3.72-2.51,4.51-23.68,7.19-27.58,5.52-26.19-9.19-32.04-18.11-10.59-10.59-22.57-14.77-19.71-38.96-21.01-54.11,2.16-35.06-4.33-39.39-9.96-14.28-26.4-6.49c-16.45,7.79-15.15,7.36-25.54,9.96s-18.18,7.79-18.18,7.79c0,0-4.33,5.63-2.6,12.55s-10.39,2.16-10.39,2.16c0,0,0,15.15,2.6,21.21s7.36,10.79,10.39,11.45,5.19,2.06-9.09,1.58-10.82,20.73-10.82,20.73c0,0,2.6,19.34,9.96,20.71s-6.49,7.86-5.19,10.46,5.63,10.04,9.96,14.54,8.66,29.61,22.51,21.82,29.87-17.75,27.27-9.96-6.88,27.27-11.88,27.7-13.66,2.16-13.66,2.16c0,0-5.19,6.06-6.49,8.22s-17.75,8.9-12.12,19.82-6.49,8.75,12.12,14.38-12.99,3.03-12.99,3.03c0,0-10.82,9.03-7.36,20.53s-7.79,7.17,11.69,20.59-16.63,9.52,4.24,25.97,14.81,26.4,29.09,14.28,31.17-28.14,35.5-32.03,35.06-20.93,41.12-14.58-8.22,7.22-8.22,7.22c0,0-6.61,6.49-4.6,16.45s7.2,32.03,16.72,39.39,31.6,41.56,37.66,36.79,2.6-22.08,7.36-29.87,21.21-43.29,24.67-43.72-5.19,9.52-3.9,11.25,11.69-13.42,11.69-13.42l4.44,4.33v-4.76l13.31-21.21s-2.6-6.06-5.63-4.33-12.55,13.42-19.48,13.85-38.96,9.96-51.94,2.6-15.58-10.54-14.28-14.58-.87-68.53,42.42-104.9c0,0,23.79-10.32,23.3-12.28s-1.31-6.9-1.31-6.9l11.58-15.6s8.16-10.69,2.03-10.69Z"/>
  </g>
  <g id="_图层_2" data-name="图层 2">
    <path class="cls-2" d="M1202.84,345.85s-6.68,5.67-7.28,7.08-7.08,14.77-24.68,14.97-30.96-4.45-33.79-4.25-17.6,7.89-25.7,3.24-25.49-12.34-38.65-30.96-22.26-25.49-27.92-23.07-13.96,8.7-16.39,8.9-6.47,10.93-8.5,15.58-3.44,7.28-4.45,10.12-6.88,8.7-7.28,9.91.4,8.5,0,9.31-8.3,13.96-6.07,19.42,6.47,5.26,6.47,6.27,1.62,5.67,3.64,5.67,13.35-1.01,13.35-1.01c0,0,4.05,0,2.63,2.23s-15.78,9.71-14.37,13.56.81,6.68,2.43,8.09,3.44,1.01,4.25,2.83,36.42,65.15,45.53,67.78,7.49,6.07,17.6,0,9.71-7.69,8.9-3.84-9.31,14.77-1.62,20.23,53.84,46.88,79.53,36.52,42.56-28.76,43.33-27.22-2.68,19.17,1.53,18.02,37.58-9.97,35.28-24.54-9.59-30.68-9.97-35.28-15.72-59.82-19.56-67.87-14.57-20.71-16.1-31.44-2.46-19.43-1.53-21.66-.61-8.6-.61-8.6Z"/>
    <path class="cls-2" d="M1205.08,311.28s5.11,1.42,6.53,5.82,2.41,17.31,2.41,17.88-.28,3.83,2.13,3.97-4.68.99-4.82,0-1.77,12.63-.46,12.91-.03,3.83,0,4.82-2.52-9.22-3.37-10.78-3.85,2.55-3.82,4.97-2.69-3.4-2.69-3.4c0,0,3.39,0,3.53-2.7s1.7-6.67,0-6.81-20.15,11.78-21.85,10.07,3.26-2.55,6.1-5.68,10.94-6.81,10.72-9.79,4.89-2.98,5.03-5.82-1.84-16.53.57-15.47Z"/>
    <path class="cls-3" d="M1466.98,168.36s-4.64,7.42-4.64,12.68,1.86,9.89,0,11.44-16.08,17.01-14.84,17.32,17.63-13.61,19.48-13.3-7.88,20.1-7.88,20.1c0,0-12.53,17.93-30.46,16.08s-25.97,11.44-25.97,11.44c0,0-6.18,11.75,0,14.22s12.06,11.13,12.06,11.13c0,0,26.9,14.53,30.3,13.61s4.95.04,4.95.04c0,0,.93,3.98,4.02,3.98s19.17,4.33,26.9,1.55,6.8,1.56,12.68.93,14.22-8.35,12.68-12.06-23.19-30.61-28.76-34.32-4.95-16.7-5.57-21.95-1.86-17.01,0-16.7,3.71,11.13,5.26,9.89.31-17.63-.93-18.24,8.04,1.86,6.8-.31-3.71-.31-4.64-4.64-8.35-21.34-8.35-21.34l-3.09-1.55Z"/>
    <path class="cls-3" d="M1411.92,233s-23.44,16.99-24.46,25.48-6.12,34.65-6.12,35.67,1.7,31.94,1.7,31.94c0,0,3.4,18.01-21.06,16.31s-13.59-1.36-26.5-2.72-5.1-16.65-7.47-16.31-11.21,6.46-17.33,1.7-1.02-1.82-10.19-9.24-1.7-21.34,1.7-24.4,4.11-2.91-6.1-1.8-9.87.78-11.91-3.3-11.55,3.06-8.15-18.35,8.15-28.2,7.13-29.9,2.04-2.72,2.04-5.1.34-10.19.68-12.91,9.17-10.87,13.59-13.25,4.08-7.13,8.83-7.47,12.23.34,14.61,4.42,14.61,27.52,27.52,30.24,8.83,7.13,22.08,5.78,10.19,2.72,20.72-2.04,18.69-4.76,18.69-4.76Z"/>
  </g>
</svg>